<svg xmlns="http://www.w3.org/2000/svg" xmlns:xlink="http://www.w3.org/1999/xlink" width="500" zoomAndPan="magnify" viewBox="0 0 375 374.999991" height="500" preserveAspectRatio="xMidYMid meet" version="1.0"><defs><g/><clipPath id="477e955833"><path d="M 142 37.5 L 233 37.5 L 233 214.140625 L 142 214.140625 Z M 142 37.5 " clip-rule="nonzero"/></clipPath><clipPath id="17ace9a8c8"><path d="M 142.871094 140.042969 C 135.367188 72.484375 207.519531 88.765625 232.246094 61.902344 C 239.140625 122.953125 168.613281 97.714844 142.871094 140.042969 Z M 224.949219 112.363281 C 215.632812 128.242188 156.757812 125.261719 149.558594 154.28125 C 136.183594 210.039062 196.980469 214.109375 196.980469 214.109375 C 196.980469 214.109375 162.125 203.117188 169.421875 170.964844 C 173.476562 155.097656 227.796875 163.238281 224.949219 112.363281 Z M 177.246094 37.488281 C 168.164062 37.488281 160.800781 44.878906 160.800781 53.996094 C 160.800781 63.117188 168.164062 70.507812 177.246094 70.507812 C 186.332031 70.507812 193.691406 63.117188 193.691406 53.996094 C 193.691406 44.878906 186.332031 37.488281 177.246094 37.488281 Z M 177.246094 37.488281 " clip-rule="nonzero"/></clipPath><linearGradient x1="64.987417" gradientTransform="matrix(0.420835, 0, 0, 0.422482, 82.313777, 20.17822)" y1="353.228828" x2="430.937274" gradientUnits="userSpaceOnUse" y2="141.948207" id="9da20f198b"><stop stop-opacity="1" stop-color="rgb(97.999573%, 72.499084%, 8.198547%)" offset="0"/><stop stop-opacity="1" stop-color="rgb(97.999573%, 72.499084%, 8.198547%)" offset="0.125"/><stop stop-opacity="1" stop-color="rgb(97.999573%, 72.499084%, 8.198547%)" offset="0.1875"/><stop stop-opacity="1" stop-color="rgb(97.999573%, 72.499084%, 8.198547%)" offset="0.21875"/><stop stop-opacity="1" stop-color="rgb(97.999573%, 72.499084%, 8.198547%)" offset="0.234375"/><stop stop-opacity="1" stop-color="rgb(97.999573%, 72.499084%, 8.198547%)" offset="0.242188"/><stop stop-opacity="1" stop-color="rgb(97.903442%, 71.821594%, 8.395386%)" offset="0.246094"/><stop stop-opacity="1" stop-color="rgb(97.808838%, 71.144104%, 8.59375%)" offset="0.25"/><stop stop-opacity="1" stop-color="rgb(97.662354%, 70.108032%, 8.894348%)" offset="0.253906"/><stop stop-opacity="1" stop-color="rgb(97.517395%, 69.073486%, 9.196472%)" offset="0.257813"/><stop stop-opacity="1" stop-color="rgb(97.372437%, 68.03894%, 9.49707%)" offset="0.261719"/><stop stop-opacity="1" stop-color="rgb(97.227478%, 67.004395%, 9.799194%)" offset="0.265625"/><stop stop-opacity="1" stop-color="rgb(97.080994%, 65.968323%, 10.099792%)" offset="0.269531"/><stop stop-opacity="1" stop-color="rgb(96.936035%, 64.933777%, 10.401917%)" offset="0.273438"/><stop stop-opacity="1" stop-color="rgb(96.789551%, 63.897705%, 10.702515%)" offset="0.277344"/><stop stop-opacity="1" stop-color="rgb(96.644592%, 62.863159%, 11.004639%)" offset="0.28125"/><stop stop-opacity="1" stop-color="rgb(96.498108%, 61.827087%, 11.305237%)" offset="0.285156"/><stop stop-opacity="1" stop-color="rgb(96.353149%, 60.792542%, 11.607361%)" offset="0.289063"/><stop stop-opacity="1" stop-color="rgb(96.208191%, 59.75647%, 11.907959%)" offset="0.292969"/><stop stop-opacity="1" stop-color="rgb(96.063232%, 58.721924%, 12.210083%)" offset="0.296875"/><stop stop-opacity="1" stop-color="rgb(95.916748%, 57.685852%, 12.512207%)" offset="0.300781"/><stop stop-opacity="1" stop-color="rgb(95.77179%, 56.651306%, 12.814331%)" offset="0.304688"/><stop stop-opacity="1" stop-color="rgb(95.625305%, 55.615234%, 13.114929%)" offset="0.308594"/><stop stop-opacity="1" stop-color="rgb(95.480347%, 54.580688%, 13.417053%)" offset="0.3125"/><stop stop-opacity="1" stop-color="rgb(95.333862%, 53.544617%, 13.717651%)" offset="0.316406"/><stop stop-opacity="1" stop-color="rgb(95.188904%, 52.510071%, 14.019775%)" offset="0.320312"/><stop stop-opacity="1" stop-color="rgb(95.043945%, 51.473999%, 14.320374%)" offset="0.324219"/><stop stop-opacity="1" stop-color="rgb(94.898987%, 50.439453%, 14.622498%)" offset="0.328125"/><stop stop-opacity="1" stop-color="rgb(94.752502%, 49.403381%, 14.923096%)" offset="0.332031"/><stop stop-opacity="1" stop-color="rgb(94.607544%, 48.368835%, 15.22522%)" offset="0.335938"/><stop stop-opacity="1" stop-color="rgb(94.46106%, 47.332764%, 15.525818%)" offset="0.339844"/><stop stop-opacity="1" stop-color="rgb(94.316101%, 46.298218%, 15.827942%)" offset="0.34375"/><stop stop-opacity="1" stop-color="rgb(94.169617%, 45.262146%, 16.12854%)" offset="0.347656"/><stop stop-opacity="1" stop-color="rgb(94.024658%, 44.2276%, 16.430664%)" offset="0.351562"/><stop stop-opacity="1" stop-color="rgb(93.8797%, 43.191528%, 16.731262%)" offset="0.355469"/><stop stop-opacity="1" stop-color="rgb(93.734741%, 42.156982%, 17.033386%)" offset="0.359375"/><stop stop-opacity="1" stop-color="rgb(93.588257%, 41.120911%, 17.333984%)" offset="0.363281"/><stop stop-opacity="1" stop-color="rgb(93.443298%, 40.086365%, 17.636108%)" offset="0.367188"/><stop stop-opacity="1" stop-color="rgb(93.296814%, 39.051819%, 17.936707%)" offset="0.371094"/><stop stop-opacity="1" stop-color="rgb(93.151855%, 38.017273%, 18.238831%)" offset="0.375"/><stop stop-opacity="1" stop-color="rgb(93.006897%, 36.981201%, 18.539429%)" offset="0.378906"/><stop stop-opacity="1" stop-color="rgb(92.861938%, 35.946655%, 18.841553%)" offset="0.382812"/><stop stop-opacity="1" stop-color="rgb(92.715454%, 34.910583%, 19.143677%)" offset="0.386719"/><stop stop-opacity="1" stop-color="rgb(92.570496%, 33.876038%, 19.445801%)" offset="0.390625"/><stop stop-opacity="1" stop-color="rgb(92.424011%, 32.839966%, 19.746399%)" offset="0.394531"/><stop stop-opacity="1" stop-color="rgb(92.279053%, 31.80542%, 20.048523%)" offset="0.398438"/><stop stop-opacity="1" stop-color="rgb(92.132568%, 30.769348%, 20.349121%)" offset="0.402344"/><stop stop-opacity="1" stop-color="rgb(91.98761%, 29.734802%, 20.651245%)" offset="0.40625"/><stop stop-opacity="1" stop-color="rgb(91.842651%, 28.69873%, 20.951843%)" offset="0.410156"/><stop stop-opacity="1" stop-color="rgb(91.697693%, 27.664185%, 21.253967%)" offset="0.414063"/><stop stop-opacity="1" stop-color="rgb(91.551208%, 26.628113%, 21.554565%)" offset="0.417969"/><stop stop-opacity="1" stop-color="rgb(91.40625%, 25.593567%, 21.856689%)" offset="0.421875"/><stop stop-opacity="1" stop-color="rgb(91.259766%, 24.557495%, 22.157288%)" offset="0.425781"/><stop stop-opacity="1" stop-color="rgb(91.114807%, 23.522949%, 22.459412%)" offset="0.429688"/><stop stop-opacity="1" stop-color="rgb(90.708923%, 23.298645%, 23.352051%)" offset="0.433594"/><stop stop-opacity="1" stop-color="rgb(90.30304%, 23.075867%, 24.24469%)" offset="0.4375"/><stop stop-opacity="1" stop-color="rgb(89.724731%, 23.388672%, 25.527954%)" offset="0.441406"/><stop stop-opacity="1" stop-color="rgb(89.147949%, 23.703003%, 26.812744%)" offset="0.445313"/><stop stop-opacity="1" stop-color="rgb(88.569641%, 24.015808%, 28.096008%)" offset="0.449219"/><stop stop-opacity="1" stop-color="rgb(87.992859%, 24.330139%, 29.380798%)" offset="0.453125"/><stop stop-opacity="1" stop-color="rgb(87.414551%, 24.642944%, 30.664062%)" offset="0.457031"/><stop stop-opacity="1" stop-color="rgb(86.837769%, 24.957275%, 31.948853%)" offset="0.460938"/><stop stop-opacity="1" stop-color="rgb(86.25946%, 25.270081%, 33.232117%)" offset="0.464844"/><stop stop-opacity="1" stop-color="rgb(85.682678%, 25.584412%, 34.516907%)" offset="0.46875"/><stop stop-opacity="1" stop-color="rgb(85.10437%, 25.897217%, 35.800171%)" offset="0.472656"/><stop stop-opacity="1" stop-color="rgb(84.527588%, 26.210022%, 37.084961%)" offset="0.476563"/><stop stop-opacity="1" stop-color="rgb(83.94928%, 26.522827%, 38.368225%)" offset="0.480469"/><stop stop-opacity="1" stop-color="rgb(83.372498%, 26.837158%, 39.653015%)" offset="0.484375"/><stop stop-opacity="1" stop-color="rgb(82.794189%, 27.149963%, 40.936279%)" offset="0.488281"/><stop stop-opacity="1" stop-color="rgb(82.215881%, 27.464294%, 42.221069%)" offset="0.492188"/><stop stop-opacity="1" stop-color="rgb(81.637573%, 27.7771%, 43.504333%)" offset="0.496094"/><stop stop-opacity="1" stop-color="rgb(81.060791%, 28.091431%, 44.787598%)" offset="0.5"/><stop stop-opacity="1" stop-color="rgb(80.482483%, 28.404236%, 46.070862%)" offset="0.503906"/><stop stop-opacity="1" stop-color="rgb(79.905701%, 28.717041%, 47.355652%)" offset="0.507812"/><stop stop-opacity="1" stop-color="rgb(79.327393%, 29.029846%, 48.638916%)" offset="0.511719"/><stop stop-opacity="1" stop-color="rgb(78.75061%, 29.344177%, 49.923706%)" offset="0.515625"/><stop stop-opacity="1" stop-color="rgb(78.172302%, 29.656982%, 51.20697%)" offset="0.519531"/><stop stop-opacity="1" stop-color="rgb(77.59552%, 29.971313%, 52.49176%)" offset="0.523438"/><stop stop-opacity="1" stop-color="rgb(77.017212%, 30.284119%, 53.775024%)" offset="0.527344"/><stop stop-opacity="1" stop-color="rgb(76.44043%, 30.59845%, 55.059814%)" offset="0.53125"/><stop stop-opacity="1" stop-color="rgb(75.862122%, 30.911255%, 56.343079%)" offset="0.535156"/><stop stop-opacity="1" stop-color="rgb(75.285339%, 31.22406%, 57.627869%)" offset="0.539062"/><stop stop-opacity="1" stop-color="rgb(74.707031%, 31.536865%, 58.911133%)" offset="0.542969"/><stop stop-opacity="1" stop-color="rgb(74.128723%, 31.851196%, 60.195923%)" offset="0.546875"/><stop stop-opacity="1" stop-color="rgb(73.550415%, 32.164001%, 61.479187%)" offset="0.550781"/><stop stop-opacity="1" stop-color="rgb(72.973633%, 32.478333%, 62.763977%)" offset="0.554688"/><stop stop-opacity="1" stop-color="rgb(72.395325%, 32.791138%, 64.047241%)" offset="0.558594"/><stop stop-opacity="1" stop-color="rgb(71.818542%, 33.105469%, 65.330505%)" offset="0.5625"/><stop stop-opacity="1" stop-color="rgb(71.240234%, 33.418274%, 66.61377%)" offset="0.566406"/><stop stop-opacity="1" stop-color="rgb(70.663452%, 33.731079%, 67.89856%)" offset="0.570312"/><stop stop-opacity="1" stop-color="rgb(70.085144%, 34.043884%, 69.181824%)" offset="0.574219"/><stop stop-opacity="1" stop-color="rgb(69.508362%, 34.358215%, 70.466614%)" offset="0.578125"/><stop stop-opacity="1" stop-color="rgb(68.930054%, 34.671021%, 71.749878%)" offset="0.582031"/><stop stop-opacity="1" stop-color="rgb(68.353271%, 34.985352%, 73.034668%)" offset="0.585938"/><stop stop-opacity="1" stop-color="rgb(67.774963%, 35.298157%, 74.317932%)" offset="0.589844"/><stop stop-opacity="1" stop-color="rgb(67.198181%, 35.612488%, 75.602722%)" offset="0.59375"/><stop stop-opacity="1" stop-color="rgb(66.609192%, 36.068726%, 76.649475%)" offset="0.597656"/><stop stop-opacity="1" stop-color="rgb(66.020203%, 36.526489%, 77.697754%)" offset="0.601562"/><stop stop-opacity="1" stop-color="rgb(65.393066%, 37.486267%, 77.920532%)" offset="0.605469"/><stop stop-opacity="1" stop-color="rgb(64.76593%, 38.446045%, 78.143311%)" offset="0.609375"/><stop stop-opacity="1" stop-color="rgb(64.138794%, 39.405823%, 78.366089%)" offset="0.613281"/><stop stop-opacity="1" stop-color="rgb(63.511658%, 40.367126%, 78.588867%)" offset="0.617188"/><stop stop-opacity="1" stop-color="rgb(62.882996%, 41.326904%, 78.811646%)" offset="0.621094"/><stop stop-opacity="1" stop-color="rgb(62.255859%, 42.286682%, 79.034424%)" offset="0.625"/><stop stop-opacity="1" stop-color="rgb(61.628723%, 43.24646%, 79.255676%)" offset="0.628906"/><stop stop-opacity="1" stop-color="rgb(61.001587%, 44.206238%, 79.478455%)" offset="0.632812"/><stop stop-opacity="1" stop-color="rgb(60.374451%, 45.166016%, 79.701233%)" offset="0.636719"/><stop stop-opacity="1" stop-color="rgb(59.747314%, 46.127319%, 79.924011%)" offset="0.640625"/><stop stop-opacity="1" stop-color="rgb(59.120178%, 47.087097%, 80.14679%)" offset="0.644531"/><stop stop-opacity="1" stop-color="rgb(58.493042%, 48.046875%, 80.369568%)" offset="0.648438"/><stop stop-opacity="1" stop-color="rgb(57.865906%, 49.006653%, 80.592346%)" offset="0.652344"/><stop stop-opacity="1" stop-color="rgb(57.23877%, 49.966431%, 80.815125%)" offset="0.65625"/><stop stop-opacity="1" stop-color="rgb(56.610107%, 50.926208%, 81.036377%)" offset="0.660156"/><stop stop-opacity="1" stop-color="rgb(55.982971%, 51.887512%, 81.259155%)" offset="0.664062"/><stop stop-opacity="1" stop-color="rgb(55.355835%, 52.84729%, 81.481934%)" offset="0.667969"/><stop stop-opacity="1" stop-color="rgb(54.728699%, 53.807068%, 81.704712%)" offset="0.671875"/><stop stop-opacity="1" stop-color="rgb(54.101562%, 54.766846%, 81.92749%)" offset="0.675781"/><stop stop-opacity="1" stop-color="rgb(53.474426%, 55.726624%, 82.150269%)" offset="0.679688"/><stop stop-opacity="1" stop-color="rgb(52.84729%, 56.686401%, 82.373047%)" offset="0.683594"/><stop stop-opacity="1" stop-color="rgb(52.220154%, 57.647705%, 82.595825%)" offset="0.6875"/><stop stop-opacity="1" stop-color="rgb(51.593018%, 58.607483%, 82.817078%)" offset="0.691406"/><stop stop-opacity="1" stop-color="rgb(50.965881%, 59.567261%, 83.039856%)" offset="0.695312"/><stop stop-opacity="1" stop-color="rgb(50.337219%, 60.527039%, 83.262634%)" offset="0.699219"/><stop stop-opacity="1" stop-color="rgb(49.710083%, 61.486816%, 83.485413%)" offset="0.703125"/><stop stop-opacity="1" stop-color="rgb(49.082947%, 62.446594%, 83.708191%)" offset="0.707031"/><stop stop-opacity="1" stop-color="rgb(48.455811%, 63.407898%, 83.930969%)" offset="0.710938"/><stop stop-opacity="1" stop-color="rgb(47.828674%, 64.367676%, 84.153748%)" offset="0.714844"/><stop stop-opacity="1" stop-color="rgb(47.201538%, 65.327454%, 84.376526%)" offset="0.71875"/><stop stop-opacity="1" stop-color="rgb(46.574402%, 66.287231%, 84.597778%)" offset="0.722656"/><stop stop-opacity="1" stop-color="rgb(45.947266%, 67.247009%, 84.820557%)" offset="0.726562"/><stop stop-opacity="1" stop-color="rgb(45.320129%, 68.206787%, 85.043335%)" offset="0.730469"/><stop stop-opacity="1" stop-color="rgb(44.692993%, 69.168091%, 85.266113%)" offset="0.734375"/><stop stop-opacity="1" stop-color="rgb(44.064331%, 70.127869%, 85.488892%)" offset="0.738281"/><stop stop-opacity="1" stop-color="rgb(43.437195%, 71.087646%, 85.71167%)" offset="0.742188"/><stop stop-opacity="1" stop-color="rgb(42.810059%, 72.047424%, 85.934448%)" offset="0.746094"/><stop stop-opacity="1" stop-color="rgb(42.182922%, 73.008728%, 86.157227%)" offset="0.75"/><stop stop-opacity="1" stop-color="rgb(41.555786%, 73.968506%, 86.378479%)" offset="0.753906"/><stop stop-opacity="1" stop-color="rgb(40.92865%, 74.928284%, 86.601257%)" offset="0.757812"/><stop stop-opacity="1" stop-color="rgb(40.301514%, 75.888062%, 86.824036%)" offset="0.761719"/><stop stop-opacity="1" stop-color="rgb(39.674377%, 76.847839%, 87.046814%)" offset="0.765625"/><stop stop-opacity="1" stop-color="rgb(39.047241%, 77.807617%, 87.269592%)" offset="0.769531"/><stop stop-opacity="1" stop-color="rgb(38.420105%, 78.768921%, 87.492371%)" offset="0.773438"/><stop stop-opacity="1" stop-color="rgb(38.409424%, 78.78418%, 87.495422%)" offset="0.78125"/><stop stop-opacity="1" stop-color="rgb(38.398743%, 78.799438%, 87.5%)" offset="0.8125"/><stop stop-opacity="1" stop-color="rgb(38.398743%, 78.799438%, 87.5%)" offset="0.875"/><stop stop-opacity="1" stop-color="rgb(38.398743%, 78.799438%, 87.5%)" offset="1"/></linearGradient></defs><g fill="#ffffff" fill-opacity="0.0902"><g transform="translate(5.175861, 298.242795)"><g><path d="M 9.84375 -81.96875 L 72.25 -81.96875 L 72.25 -65.578125 L 27.875 -65.578125 L 27.875 -48.125 L 66.984375 -48.125 L 66.984375 -31.734375 L 27.875 -31.734375 L 27.875 0 L 9.84375 0 Z M 9.84375 -81.96875 "/></g></g></g><g fill="#ffffff" fill-opacity="0.0902"><g transform="translate(81.999365, 298.242795)"><g><path d="M 7.96875 -62.765625 L 25.765625 -62.765625 L 25.765625 -50.125 C 27.554688 -54.414062 30.015625 -57.847656 33.140625 -60.421875 C 36.265625 -63.003906 40.484375 -64.175781 45.796875 -63.9375 L 45.796875 -45.328125 L 44.859375 -45.328125 C 38.921875 -45.328125 34.253906 -43.53125 30.859375 -39.9375 C 27.460938 -36.34375 25.765625 -30.757812 25.765625 -23.1875 L 25.765625 0 L 7.96875 0 Z M 7.96875 -62.765625 "/></g></g></g><g fill="#ffffff" fill-opacity="0.0902"><g transform="translate(130.950924, 298.242795)"><g><path d="M 37.703125 1.40625 C 33.023438 1.40625 28.675781 0.625 24.65625 -0.9375 C 20.632812 -2.5 17.160156 -4.722656 14.234375 -7.609375 C 11.304688 -10.492188 9.019531 -13.90625 7.375 -17.84375 C 5.738281 -21.789062 4.921875 -26.1875 4.921875 -31.03125 L 4.921875 -31.265625 C 4.921875 -35.710938 5.679688 -39.925781 7.203125 -43.90625 C 8.722656 -47.894531 10.847656 -51.367188 13.578125 -54.328125 C 16.316406 -57.296875 19.578125 -59.640625 23.359375 -61.359375 C 27.148438 -63.078125 31.347656 -63.9375 35.953125 -63.9375 C 41.179688 -63.9375 45.707031 -63 49.53125 -61.125 C 53.363281 -59.257812 56.546875 -56.742188 59.078125 -53.578125 C 61.617188 -50.410156 63.492188 -46.773438 64.703125 -42.671875 C 65.910156 -38.578125 66.515625 -34.304688 66.515625 -29.859375 C 66.515625 -29.160156 66.492188 -28.421875 66.453125 -27.640625 C 66.421875 -26.859375 66.363281 -26.035156 66.28125 -25.171875 L 22.609375 -25.171875 C 23.460938 -21.117188 25.234375 -18.054688 27.921875 -15.984375 C 30.617188 -13.910156 33.957031 -12.875 37.9375 -12.875 C 40.90625 -12.875 43.5625 -13.378906 45.90625 -14.390625 C 48.25 -15.410156 50.671875 -17.054688 53.171875 -19.328125 L 63.359375 -10.3125 C 60.390625 -6.632812 56.796875 -3.757812 52.578125 -1.6875 C 48.367188 0.375 43.410156 1.40625 37.703125 1.40625 Z M 49.1875 -36.296875 C 48.632812 -40.285156 47.226562 -43.507812 44.96875 -45.96875 C 42.707031 -48.425781 39.703125 -49.65625 35.953125 -49.65625 C 32.203125 -49.65625 29.175781 -48.441406 26.875 -46.015625 C 24.570312 -43.597656 23.070312 -40.359375 22.375 -36.296875 Z M 49.1875 -36.296875 "/></g></g></g><g fill="#ffffff" fill-opacity="0.0902"><g transform="translate(202.738741, 298.242795)"><g><path d="M 37.703125 1.40625 C 33.023438 1.40625 28.675781 0.625 24.65625 -0.9375 C 20.632812 -2.5 17.160156 -4.722656 14.234375 -7.609375 C 11.304688 -10.492188 9.019531 -13.90625 7.375 -17.84375 C 5.738281 -21.789062 4.921875 -26.1875 4.921875 -31.03125 L 4.921875 -31.265625 C 4.921875 -35.710938 5.679688 -39.925781 7.203125 -43.90625 C 8.722656 -47.894531 10.847656 -51.367188 13.578125 -54.328125 C 16.316406 -57.296875 19.578125 -59.640625 23.359375 -61.359375 C 27.148438 -63.078125 31.347656 -63.9375 35.953125 -63.9375 C 41.179688 -63.9375 45.707031 -63 49.53125 -61.125 C 53.363281 -59.257812 56.546875 -56.742188 59.078125 -53.578125 C 61.617188 -50.410156 63.492188 -46.773438 64.703125 -42.671875 C 65.910156 -38.578125 66.515625 -34.304688 66.515625 -29.859375 C 66.515625 -29.160156 66.492188 -28.421875 66.453125 -27.640625 C 66.421875 -26.859375 66.363281 -26.035156 66.28125 -25.171875 L 22.609375 -25.171875 C 23.460938 -21.117188 25.234375 -18.054688 27.921875 -15.984375 C 30.617188 -13.910156 33.957031 -12.875 37.9375 -12.875 C 40.90625 -12.875 43.5625 -13.378906 45.90625 -14.390625 C 48.25 -15.410156 50.671875 -17.054688 53.171875 -19.328125 L 63.359375 -10.3125 C 60.390625 -6.632812 56.796875 -3.757812 52.578125 -1.6875 C 48.367188 0.375 43.410156 1.40625 37.703125 1.40625 Z M 49.1875 -36.296875 C 48.632812 -40.285156 47.226562 -43.507812 44.96875 -45.96875 C 42.707031 -48.425781 39.703125 -49.65625 35.953125 -49.65625 C 32.203125 -49.65625 29.175781 -48.441406 26.875 -46.015625 C 24.570312 -43.597656 23.070312 -40.359375 22.375 -36.296875 Z M 49.1875 -36.296875 "/></g></g></g><g fill="#ffffff" fill-opacity="0.0902"><g transform="translate(274.52657, 298.242795)"><g><path d="M 8.78125 -85.484375 L 26.578125 -85.484375 L 26.578125 0 L 8.78125 0 Z M 8.78125 -85.484375 "/></g></g></g><g fill="#ffffff" fill-opacity="0.0902"><g transform="translate(309.893492, 298.242795)"><g><path d="M 49.1875 -62.765625 L 67.6875 -62.765625 L 43.5625 1.515625 C 42.394531 4.722656 41.144531 7.4375 39.8125 9.65625 C 38.488281 11.882812 37.023438 13.703125 35.421875 15.109375 C 33.828125 16.515625 32.015625 17.53125 29.984375 18.15625 C 27.953125 18.78125 25.609375 19.09375 22.953125 19.09375 C 19.671875 19.09375 16.78125 18.703125 14.28125 17.921875 C 11.789062 17.140625 9.410156 16.082031 7.140625 14.75 L 13.109375 1.875 C 14.285156 2.570312 15.554688 3.15625 16.921875 3.625 C 18.285156 4.09375 19.554688 4.328125 20.734375 4.328125 C 22.296875 4.328125 23.523438 4.035156 24.421875 3.453125 C 25.316406 2.867188 26.15625 1.796875 26.9375 0.234375 L 2.34375 -62.765625 L 21.203125 -62.765625 L 35.484375 -20.03125 Z M 49.1875 -62.765625 "/></g></g></g><g fill="#ffffff" fill-opacity="1"><g transform="translate(0.0000045, 293.066931)"><g><path d="M 9.84375 -81.96875 L 72.25 -81.96875 L 72.25 -65.578125 L 27.875 -65.578125 L 27.875 -48.125 L 66.984375 -48.125 L 66.984375 -31.734375 L 27.875 -31.734375 L 27.875 0 L 9.84375 0 Z M 9.84375 -81.96875 "/></g></g></g><g fill="#ffffff" fill-opacity="1"><g transform="translate(76.823508, 293.066931)"><g><path d="M 7.96875 -62.765625 L 25.765625 -62.765625 L 25.765625 -50.125 C 27.554688 -54.414062 30.015625 -57.847656 33.140625 -60.421875 C 36.265625 -63.003906 40.484375 -64.175781 45.796875 -63.9375 L 45.796875 -45.328125 L 44.859375 -45.328125 C 38.921875 -45.328125 34.253906 -43.53125 30.859375 -39.9375 C 27.460938 -36.34375 25.765625 -30.757812 25.765625 -23.1875 L 25.765625 0 L 7.96875 0 Z M 7.96875 -62.765625 "/></g></g></g><g fill="#ffffff" fill-opacity="1"><g transform="translate(125.775067, 293.066931)"><g><path d="M 37.703125 1.40625 C 33.023438 1.40625 28.675781 0.625 24.65625 -0.9375 C 20.632812 -2.5 17.160156 -4.722656 14.234375 -7.609375 C 11.304688 -10.492188 9.019531 -13.90625 7.375 -17.84375 C 5.738281 -21.789062 4.921875 -26.1875 4.921875 -31.03125 L 4.921875 -31.265625 C 4.921875 -35.710938 5.679688 -39.925781 7.203125 -43.90625 C 8.722656 -47.894531 10.847656 -51.367188 13.578125 -54.328125 C 16.316406 -57.296875 19.578125 -59.640625 23.359375 -61.359375 C 27.148438 -63.078125 31.347656 -63.9375 35.953125 -63.9375 C 41.179688 -63.9375 45.707031 -63 49.53125 -61.125 C 53.363281 -59.257812 56.546875 -56.742188 59.078125 -53.578125 C 61.617188 -50.410156 63.492188 -46.773438 64.703125 -42.671875 C 65.910156 -38.578125 66.515625 -34.304688 66.515625 -29.859375 C 66.515625 -29.160156 66.492188 -28.421875 66.453125 -27.640625 C 66.421875 -26.859375 66.363281 -26.035156 66.28125 -25.171875 L 22.609375 -25.171875 C 23.460938 -21.117188 25.234375 -18.054688 27.921875 -15.984375 C 30.617188 -13.910156 33.957031 -12.875 37.9375 -12.875 C 40.90625 -12.875 43.5625 -13.378906 45.90625 -14.390625 C 48.25 -15.410156 50.671875 -17.054688 53.171875 -19.328125 L 63.359375 -10.3125 C 60.390625 -6.632812 56.796875 -3.757812 52.578125 -1.6875 C 48.367188 0.375 43.410156 1.40625 37.703125 1.40625 Z M 49.1875 -36.296875 C 48.632812 -40.285156 47.226562 -43.507812 44.96875 -45.96875 C 42.707031 -48.425781 39.703125 -49.65625 35.953125 -49.65625 C 32.203125 -49.65625 29.175781 -48.441406 26.875 -46.015625 C 24.570312 -43.597656 23.070312 -40.359375 22.375 -36.296875 Z M 49.1875 -36.296875 "/></g></g></g><g fill="#ffffff" fill-opacity="1"><g transform="translate(197.562884, 293.066931)"><g><path d="M 37.703125 1.40625 C 33.023438 1.40625 28.675781 0.625 24.65625 -0.9375 C 20.632812 -2.5 17.160156 -4.722656 14.234375 -7.609375 C 11.304688 -10.492188 9.019531 -13.90625 7.375 -17.84375 C 5.738281 -21.789062 4.921875 -26.1875 4.921875 -31.03125 L 4.921875 -31.265625 C 4.921875 -35.710938 5.679688 -39.925781 7.203125 -43.90625 C 8.722656 -47.894531 10.847656 -51.367188 13.578125 -54.328125 C 16.316406 -57.296875 19.578125 -59.640625 23.359375 -61.359375 C 27.148438 -63.078125 31.347656 -63.9375 35.953125 -63.9375 C 41.179688 -63.9375 45.707031 -63 49.53125 -61.125 C 53.363281 -59.257812 56.546875 -56.742188 59.078125 -53.578125 C 61.617188 -50.410156 63.492188 -46.773438 64.703125 -42.671875 C 65.910156 -38.578125 66.515625 -34.304688 66.515625 -29.859375 C 66.515625 -29.160156 66.492188 -28.421875 66.453125 -27.640625 C 66.421875 -26.859375 66.363281 -26.035156 66.28125 -25.171875 L 22.609375 -25.171875 C 23.460938 -21.117188 25.234375 -18.054688 27.921875 -15.984375 C 30.617188 -13.910156 33.957031 -12.875 37.9375 -12.875 C 40.90625 -12.875 43.5625 -13.378906 45.90625 -14.390625 C 48.25 -15.410156 50.671875 -17.054688 53.171875 -19.328125 L 63.359375 -10.3125 C 60.390625 -6.632812 56.796875 -3.757812 52.578125 -1.6875 C 48.367188 0.375 43.410156 1.40625 37.703125 1.40625 Z M 49.1875 -36.296875 C 48.632812 -40.285156 47.226562 -43.507812 44.96875 -45.96875 C 42.707031 -48.425781 39.703125 -49.65625 35.953125 -49.65625 C 32.203125 -49.65625 29.175781 -48.441406 26.875 -46.015625 C 24.570312 -43.597656 23.070312 -40.359375 22.375 -36.296875 Z M 49.1875 -36.296875 "/></g></g></g><g fill="#ffffff" fill-opacity="1"><g transform="translate(269.350713, 293.066931)"><g><path d="M 8.78125 -85.484375 L 26.578125 -85.484375 L 26.578125 0 L 8.78125 0 Z M 8.78125 -85.484375 "/></g></g></g><g fill="#ffffff" fill-opacity="1"><g transform="translate(304.717635, 293.066931)"><g><path d="M 49.1875 -62.765625 L 67.6875 -62.765625 L 43.5625 1.515625 C 42.394531 4.722656 41.144531 7.4375 39.8125 9.65625 C 38.488281 11.882812 37.023438 13.703125 35.421875 15.109375 C 33.828125 16.515625 32.015625 17.53125 29.984375 18.15625 C 27.953125 18.78125 25.609375 19.09375 22.953125 19.09375 C 19.671875 19.09375 16.78125 18.703125 14.28125 17.921875 C 11.789062 17.140625 9.410156 16.082031 7.140625 14.75 L 13.109375 1.875 C 14.285156 2.570312 15.554688 3.15625 16.921875 3.625 C 18.285156 4.09375 19.554688 4.328125 20.734375 4.328125 C 22.296875 4.328125 23.523438 4.035156 24.421875 3.453125 C 25.316406 2.867188 26.15625 1.796875 26.9375 0.234375 L 2.34375 -62.765625 L 21.203125 -62.765625 L 35.484375 -20.03125 Z M 49.1875 -62.765625 "/></g></g></g><g clip-path="url(#477e955833)"><g clip-path="url(#17ace9a8c8)"><path fill="url(#9da20f198b)" d="M 135.367188 37.5 L 135.367188 214.109375 L 239.140625 214.109375 L 239.140625 37.5 Z M 135.367188 37.5 " fill-rule="nonzero"/></g></g></svg>